<svg width="340" height="258" viewBox="0 0 340 258" fill="none" xmlns="http://www.w3.org/2000/svg">
<g opacity="0.75">
<path d="M292.183 102.847C277.24 44.1342 225.604 1.75167 164.995 0.0517375C132.953 -0.846964 99.2361 9.77104 74.6875 46.9273C30.8042 113.348 77.3842 159.247 109.859 181.057C125.548 191.616 139.684 204.311 151.859 218.776C173.795 244.784 215.993 277.102 266.25 226.464C302.676 189.761 302.137 141.956 292.183 102.847Z" fill="#F2F2F2"/>
<path opacity="0.1" d="M224.875 158.428L255.625 127.797L224.875 97.1665L234.25 87.8306L274.375 127.797L234.25 167.763L224.875 158.428Z" fill="black"/>
<path opacity="0.1" d="M137.062 129.983H149.562V117.493H137.062V129.983ZM199.813 117.493H187.313V129.983H199.813V117.493ZM162.188 129.983H174.688V117.493H162.188V129.983Z" fill="black"/>
<path opacity="0.1" d="M120.125 158.115L89.3437 127.485L120.094 96.8542L110.719 87.5183L70.625 127.485L110.75 167.451L120.125 158.115Z" fill="black"/>
<path d="M340 234.894C340 240.068 263.888 258 170 258C76.1116 258 0 240.068 0 234.894C0 229.721 76.1116 239.266 170 239.266C263.888 239.266 340 229.721 340 234.894Z" fill="#3F3D56"/>
<path opacity="0.1" d="M340 234.894C340 240.068 263.888 258 170 258C76.1116 258 0 240.068 0 234.894C0 229.721 76.1116 239.266 170 239.266C263.888 239.266 340 229.721 340 234.894Z" fill="black"/>
<path d="M170 244.262C263.888 244.262 340 240.068 340 234.894C340 229.721 263.888 225.527 170 225.527C76.1116 225.527 0 229.721 0 234.894C0 240.068 76.1116 244.262 170 244.262Z" fill="#3F3D56"/>
<path d="M197.717 189.826C197.717 209.814 210.268 225.988 225.777 225.988L197.717 189.826Z" fill="#3F3D56"/>
<path d="M225.777 225.988C225.777 205.776 239.782 189.42 257.09 189.42L225.777 225.988Z" fill="#429586"/>
<path d="M207.884 191.638C207.884 210.625 215.887 225.988 225.777 225.988L207.884 191.638Z" fill="#429586"/>
<path d="M225.777 225.988C225.777 200.161 241.965 179.262 261.97 179.262L225.777 225.988Z" fill="#3F3D56"/>
<path d="M219.874 226.243C219.874 226.243 223.853 226.121 225.053 225.268C226.252 224.414 231.174 223.395 231.471 224.764C231.769 226.132 237.452 231.57 232.959 231.606C228.466 231.642 222.52 230.907 221.323 230.178C220.126 229.45 219.874 226.243 219.874 226.243Z" fill="#A8A8A8"/>
<path opacity="0.2" d="M233.039 231.13C228.547 231.166 222.6 230.431 221.403 229.702C220.492 229.147 220.129 227.157 220.007 226.238C219.923 226.242 219.874 226.243 219.874 226.243C219.874 226.243 220.126 229.45 221.323 230.178C222.52 230.907 228.466 231.642 232.959 231.606C234.256 231.596 234.704 231.135 234.679 230.452C234.499 230.864 234.004 231.122 233.039 231.13Z" fill="black"/>
<path d="M270.479 119.541C270.479 119.541 260.858 112.242 260.127 114.918C259.397 117.593 267.187 123.674 267.187 123.674L270.479 119.541Z" fill="#FFB9B9"/>
<path opacity="0.1" d="M270.479 119.541C270.479 119.541 260.858 112.242 260.127 114.918C259.397 117.593 267.187 123.674 267.187 123.674L270.479 119.541Z" fill="black"/>
<path d="M302.241 96.4322C302.241 96.4322 290.8 116.863 290.557 119.782C290.313 122.701 290.313 122.944 289.339 122.701C288.366 122.458 274.977 120.998 273.76 121.485C272.542 121.971 270.108 118.566 270.108 118.566C270.108 118.566 265.483 123.187 266.457 124.16C267.43 125.133 270.352 125.62 270.838 126.836C271.325 128.052 272.056 129.268 274.246 129.025C276.437 128.782 291.287 132.917 293.234 132.187C295.182 131.457 295.669 130.241 296.642 130.241C297.616 130.241 299.564 129.268 299.564 129.025C299.564 128.782 306.38 115.891 306.38 115.891C306.38 115.891 314.413 98.378 302.241 96.4322Z" fill="#D0CDE1"/>
<path opacity="0.1" d="M302.241 96.4322C302.241 96.4322 290.8 116.863 290.557 119.782C290.313 122.701 290.313 122.944 289.339 122.701C288.366 122.458 274.977 120.998 273.76 121.485C272.542 121.971 270.108 118.566 270.108 118.566C270.108 118.566 265.483 123.187 266.457 124.16C267.43 125.133 270.352 125.62 270.838 126.836C271.325 128.052 272.056 129.268 274.246 129.025C276.437 128.782 291.287 132.917 293.234 132.187C295.182 131.457 295.669 130.241 296.642 130.241C297.616 130.241 299.564 129.268 299.564 129.025C299.564 128.782 306.38 115.891 306.38 115.891C306.38 115.891 314.413 98.378 302.241 96.4322Z" fill="black"/>
<path d="M285.642 82.9628C285.538 84.2545 285.559 85.5531 285.704 86.8408C286.074 89.6353 287.361 92.5482 286.145 95.1567C285.704 96.1035 284.956 96.9285 284.549 97.8866C283.686 99.9151 284.468 102.165 284.351 104.324C284.2 107.113 282.424 109.8 279.724 111.328C284.337 111.471 288.725 109.192 291.628 106.086C294.531 102.98 296.148 99.1283 297.36 95.2741C297.982 93.4641 298.382 91.5848 298.549 89.6781C298.645 88.5827 298.517 87.4792 298.171 86.4353C297.744 85.4154 297.183 84.4573 296.502 83.5866C295.775 82.5655 295.028 81.5243 293.955 80.7645C292.634 79.8287 290.087 78.8891 288.335 79.0253C286.186 79.1923 285.732 81.4723 285.642 82.9628Z" fill="#2F2E41"/>
<path d="M292.748 90.5946C292.748 90.5946 295.425 100.081 293.234 102.756C291.044 105.432 306.38 101.54 306.38 101.54C306.38 101.54 298.833 93.9998 302.485 89.1353L292.748 90.5946Z" fill="#FFB9B9"/>
<path opacity="0.1" d="M292.748 90.5946C292.748 90.5946 295.425 100.081 293.234 102.756C291.044 105.432 306.38 101.54 306.38 101.54C306.38 101.54 298.833 93.9998 302.485 89.1353L292.748 90.5946Z" fill="black"/>
<path d="M224.875 152.495L255.625 121.864L224.875 91.234L234.25 81.8981L274.375 121.864L234.25 161.831L224.875 152.495Z" fill="#429586"/>
<path d="M283.984 217.074V224.128L287.635 228.506L290.8 227.046L289.826 216.831L283.984 217.074Z" fill="#FFB9B9"/>
<path d="M285.444 223.641C285.444 223.641 284.471 220.236 282.767 222.668C281.063 225.101 279.359 230.452 278.385 230.695C277.411 230.938 270.595 238.478 277.411 238.478C284.227 238.478 286.418 235.316 286.418 235.316C286.418 235.316 293.234 232.641 293.234 232.154C293.234 231.668 292.26 222.668 291.774 222.668C291.287 222.668 291.043 224.371 289.826 224.371C288.609 224.371 285.444 223.641 285.444 223.641Z" fill="#2F2E41"/>
<path d="M300.294 218.29L300.051 224.858L305.893 227.29V217.804L300.294 218.29Z" fill="#FFB9B9"/>
<path d="M306.623 224.857C306.623 224.857 303.459 221.452 301.755 222.182C300.912 222.521 300.097 222.928 299.32 223.398C299.32 223.398 298.347 226.56 297.86 229.236C297.373 231.911 297.129 233.127 296.642 234.1C296.156 235.073 295.669 238.722 300.537 239.208C305.406 239.694 306.867 237.019 306.867 237.019L308.084 230.695C308.084 230.695 307.597 224.857 306.623 224.857Z" fill="#2F2E41"/>
<path d="M287.149 148.24C287.149 148.24 280.089 164.05 281.063 178.401C281.063 178.401 278.628 183.995 280.089 192.751C281.55 201.507 283.497 219.02 283.497 219.02C283.497 219.02 290.07 219.75 290.557 218.534C290.557 218.534 291.043 206.372 291.53 205.886C292.017 205.399 291.287 194.211 290.557 192.021C289.826 189.832 297.373 168.185 297.373 168.185L295.425 141.186L287.149 148.24Z" fill="#2F2E41"/>
<path opacity="0.1" d="M287.149 148.24C287.149 148.24 280.089 164.05 281.063 178.401C281.063 178.401 278.628 183.995 280.089 192.751C281.55 201.507 283.497 219.02 283.497 219.02C283.497 219.02 290.07 219.75 290.557 218.534C290.557 218.534 291.043 206.372 291.53 205.886C292.017 205.399 291.287 194.211 290.557 192.021C289.826 189.832 297.373 168.185 297.373 168.185L295.425 141.186L287.149 148.24Z" fill="black"/>
<path d="M285.201 147.267L289.826 157.24C289.826 157.24 292.017 179.86 293.234 182.779C293.234 182.779 293.721 191.049 295.912 193.724C298.103 196.4 299.807 219.993 299.807 219.993C299.807 219.993 305.893 221.695 306.38 219.993C306.867 218.29 308.327 206.615 308.327 206.615C308.327 206.615 308.814 196.643 306.136 190.076C303.459 183.508 309.301 159.915 309.301 159.915C309.301 159.915 315.387 148.483 306.623 139.241L285.201 147.267Z" fill="#2F2E41"/>
<path d="M298.103 93.5134C303.615 93.5134 308.084 89.0486 308.084 83.541C308.084 78.0333 303.615 73.5685 298.103 73.5685C292.591 73.5685 288.122 78.0333 288.122 83.541C288.122 89.0486 292.591 93.5134 298.103 93.5134Z" fill="#FFB9B9"/>
<path d="M307.354 98.6212C307.354 98.6212 296.886 98.6212 295.425 99.8374C295.064 100.181 294.585 100.372 294.086 100.372C293.588 100.372 293.109 100.181 292.748 99.8374C292.748 99.8374 289.096 100.081 288.122 102.999C287.149 105.918 284.227 109.81 284.227 109.81C284.227 109.81 279.846 112.972 282.28 121.242C284.714 129.511 282.767 142.889 282.767 142.889C282.767 142.889 280.819 145.808 282.767 147.024C284.714 148.24 285.445 148.727 285.201 149.699C284.958 150.672 307.354 141.673 307.354 139.97C307.354 138.268 306.867 136.808 307.354 136.079C307.84 135.349 308.327 134.133 307.84 132.917C307.354 131.7 308.327 131.457 308.084 130.241C307.841 129.025 309.301 120.025 310.275 116.134C311.249 112.242 311.005 98.8644 307.354 98.6212Z" fill="#D0CDE1"/>
<path d="M270.479 122.46C270.479 122.46 260.858 115.161 260.127 117.836C259.397 120.512 267.187 126.593 267.187 126.593L270.479 122.46Z" fill="#FFB9B9"/>
<path d="M302.241 99.8374C302.241 99.8374 290.8 120.269 290.557 123.187C290.313 126.106 290.313 126.349 289.339 126.106C288.366 125.863 274.977 124.404 273.76 124.89C272.542 125.377 270.108 121.971 270.108 121.971C270.108 121.971 265.483 126.593 266.457 127.566C267.43 128.539 270.352 129.025 270.838 130.241C271.325 131.457 272.056 132.673 274.246 132.43C276.437 132.187 291.287 136.322 293.234 135.592C295.182 134.862 295.669 133.646 296.642 133.646C297.616 133.646 299.564 132.673 299.564 132.43C299.564 132.187 306.38 119.296 306.38 119.296C306.38 119.296 314.413 101.783 302.241 99.8374Z" fill="#D0CDE1"/>
<path d="M293.161 89.9122C293.022 88.9246 292.516 88.0286 292.256 87.0656C292.053 86.295 292.008 85.4912 292.124 84.7026C292.239 83.9141 292.514 83.1571 292.93 82.4771C294.361 80.1668 297.172 79.1436 299.132 77.2601C299.173 78.2195 299.839 79.0394 300.576 79.6564C301.312 80.2734 302.157 80.7739 302.78 81.5046C303.379 82.2756 303.816 83.1596 304.064 84.1036C304.448 85.1973 304.621 86.3542 304.572 87.5123C304.543 88.091 304.398 88.6579 304.144 89.1787C303.89 89.6994 303.532 90.1631 303.093 90.5416C302.363 91.1181 301.343 91.4474 300.99 92.3078C300.851 92.7378 300.811 93.1935 300.873 93.641C301.04 96.317 301.196 99.0407 300.566 101.647C299.935 104.253 298.39 106.771 295.968 107.926C297.958 108.067 299.99 108.205 301.921 107.703C303.852 107.201 305.698 105.937 306.364 104.058C306.692 103.131 306.723 102.1 307.19 101.234C308.371 99.0426 311.632 98.9427 313.234 97.0367C313.875 96.274 314.185 95.2911 314.415 94.3219C315.767 88.619 314.817 82.5634 312.758 77.0756C312.048 75.184 311.164 73.2795 309.642 71.95C308.347 70.8187 306.693 70.1954 305.057 69.6631C302.669 68.8862 300.21 68.2498 297.701 68.1677C296.61 68.1037 295.518 68.2312 294.471 68.5444C293.439 68.9171 292.478 69.4641 291.63 70.1616C287.699 73.2177 285.023 78.1023 285.378 83.0663C285.593 86.0699 286.867 88.9125 288.503 91.4413C289.075 92.3258 290.427 94.2117 291.684 93.6556C292.824 93.1512 293.31 90.979 293.161 89.9122Z" fill="#2F2E41"/>
<path d="M137.062 124.05H149.562V111.561H137.062V124.05ZM199.813 111.561H187.313V124.05H199.813V111.561ZM162.188 124.05H174.688V111.561H162.188V124.05Z" fill="#429586"/>
<path d="M64.4394 74.341C70.2482 74.341 74.9571 70.6711 74.9571 66.144C74.9571 61.617 70.2482 57.947 64.4394 57.947C58.6305 57.947 53.9216 61.617 53.9216 66.144C53.9216 70.6711 58.6305 74.341 64.4394 74.341Z" fill="#2F2E41"/>
<path d="M66.2274 122.577C66.2274 122.577 75.6934 123.208 77.3762 121.947C79.059 120.685 86.2112 123.628 86.8422 125.309C87.4733 126.991 76.7451 127.201 75.0623 127.201C73.3794 127.201 65.3859 129.723 65.3859 129.723L66.2274 122.577Z" fill="#A0616A"/>
<path d="M46.7351 220.483C46.7351 220.483 42.3235 231.598 44.6252 232.94C46.9269 234.281 71.0945 233.323 71.0945 233.323C71.0945 233.323 75.1224 230.832 70.5191 229.107C70.5191 229.107 66.6829 228.915 64.1895 227.382C61.696 225.849 58.8189 222.974 58.8189 222.974C58.8189 222.974 58.6271 218.758 57.0926 219.716C56.6335 220.019 56.2428 220.413 55.9455 220.875C55.6482 221.338 55.4509 221.857 55.3664 222.399L46.7351 220.483Z" fill="#2F2E41"/>
<path opacity="0.1" d="M46.7351 220.483C46.7351 220.483 42.3235 231.598 44.6252 232.94C46.9269 234.281 71.0945 233.323 71.0945 233.323C71.0945 233.323 75.1224 230.832 70.5191 229.107C70.5191 229.107 66.6829 228.915 64.1895 227.382C61.696 225.849 58.8189 222.974 58.8189 222.974C58.8189 222.974 58.6271 218.758 57.0926 219.716C56.6335 220.019 56.2428 220.413 55.9455 220.875C55.6482 221.338 55.4509 221.857 55.3664 222.399L46.7351 220.483Z" fill="black"/>
<path d="M120.125 152.183L89.3437 121.552L120.094 90.9217L110.719 81.5858L70.625 121.552L110.75 161.519L120.125 152.183Z" fill="#429586"/>
<path d="M39.9329 223.883C39.9329 223.883 35.0947 236.074 37.619 237.545C40.1433 239.016 66.6481 237.965 66.6481 237.965C66.6481 237.965 71.0656 235.233 66.017 233.342C66.017 233.342 61.8099 233.131 59.0753 231.45C56.3407 229.768 53.1853 226.616 53.1853 226.616C53.1853 226.616 52.975 221.992 51.2921 223.043C50.7887 223.374 50.3601 223.807 50.0341 224.314C49.708 224.821 49.4917 225.39 49.3989 225.985L39.9329 223.883Z" fill="#2F2E41"/>
<path d="M64.7548 146.537L61.8099 173.02C61.8099 173.02 60.7581 185.631 57.6028 188.363C57.6028 188.363 57.6028 192.357 56.551 193.618L55.0785 210.222C55.0785 210.222 57.182 216.317 56.9717 217.368C56.7613 218.419 57.8131 221.782 57.6027 222.202C57.3924 222.622 47.5057 222.202 47.5057 222.202L49.6092 188.363L56.1303 141.283L64.7548 146.537Z" fill="#2F2E41"/>
<path opacity="0.1" d="M64.7548 146.537L61.8099 173.02C61.8099 173.02 60.7581 185.631 57.6028 188.363C57.6028 188.363 57.6028 192.357 56.551 193.618L55.0785 210.222C55.0785 210.222 57.182 216.317 56.9717 217.368C56.7613 218.419 57.8131 221.782 57.6027 222.202C57.3924 222.622 47.5057 222.202 47.5057 222.202L49.6092 188.363L56.1303 141.283L64.7548 146.537Z" fill="black"/>
<path d="M59.496 145.697C59.496 145.697 57.1821 167.345 56.1303 171.969C55.469 175.014 55.047 178.106 54.8682 181.217C54.8682 181.217 54.6578 187.943 52.7646 189.834C52.2107 190.382 51.7755 191.038 51.486 191.761C51.1965 192.485 51.0589 193.259 51.0818 194.038C51.0818 194.038 49.1886 215.266 50.2403 217.788C51.2921 220.31 52.3439 222.412 51.2921 224.094C50.2403 225.775 38.6708 225.775 38.6708 224.514C38.6708 223.253 38.6708 222.202 38.0397 221.571C37.4086 220.941 38.0397 216.948 38.0397 216.948C38.0397 216.948 35.5154 198.242 37.8294 192.777C40.1433 187.312 41.1951 172.39 41.1951 172.39C41.1951 172.39 39.5122 155.365 37.4086 152.633C35.3051 149.9 37.8294 140.232 37.8294 140.232L59.496 145.697Z" fill="#2F2E41"/>
<path d="M53.5736 78.4691C53.8182 79.0257 54.4035 79.3356 54.9364 79.6289C58.0248 81.329 60.61 83.7938 63.157 86.2302C62.5215 84.0782 62.6569 81.7722 63.54 79.7093C63.8441 79.0057 64.2426 78.2493 64.0253 77.5143C63.8654 76.9738 63.4048 76.584 62.9586 76.2391C61.9193 75.4361 60.833 74.6956 59.7055 74.0216C58.9179 73.5508 57.2986 72.2974 56.3947 72.4338C56.3473 73.654 56.3225 74.7449 55.7877 75.8853C55.6608 76.1558 53.6671 78.6819 53.5736 78.4691Z" fill="#A0616A"/>
<path d="M64.3342 81.1718C69.0974 81.1718 72.9588 77.3137 72.9588 72.5545C72.9588 67.7952 69.0974 63.9371 64.3342 63.9371C59.5709 63.9371 55.7096 67.7952 55.7096 72.5545C55.7096 77.3137 59.5709 81.1718 64.3342 81.1718Z" fill="#A0616A"/>
<path d="M64.7548 92.9418C64.7548 92.9418 66.2273 85.5856 62.0202 83.0634C57.8131 80.5413 52.9749 77.5988 52.9749 77.5988C52.9749 77.5988 51.5024 77.3886 50.8714 80.5413C50.8714 80.5413 38.8811 82.8532 37.619 94.2029C36.3568 105.553 38.4604 122.157 38.4604 122.157C38.4604 122.157 36.5672 136.659 34.2533 144.436C34.2533 144.436 32.3601 146.117 40.7743 143.595C49.1885 141.073 63.9134 150.741 63.9134 150.741C63.9134 150.741 65.3859 149.27 65.3859 148.219C65.3859 147.168 67.0687 141.073 67.0687 141.073C67.0687 141.073 68.5413 115.221 69.1723 112.278C69.8034 109.336 66.648 93.3622 64.7548 92.9418Z" fill="#429586"/>
<path d="M62.3016 73.4422C62.8197 73.1553 63.4007 73.0007 63.993 72.9921C64.5861 72.9833 65.1651 72.8109 65.6663 72.494C66.481 71.8691 66.5407 70.6614 67.1367 69.8256C67.9996 68.6156 69.7209 68.4699 71.2067 68.5305C72.1154 68.5675 73.0941 68.6217 73.8593 68.1306C74.6449 67.6265 75.001 66.6765 75.2659 65.782C75.5791 64.7241 75.7817 63.4304 75.0055 62.6458C74.4665 62.101 73.6157 61.9932 73.0169 61.5148C72.396 61.0186 72.1405 60.2112 71.803 59.492C71.419 58.6158 70.8115 57.8555 70.0414 57.2873C68.9118 56.5031 67.469 56.3272 66.0936 56.3419C64.7182 56.3566 63.337 56.5373 61.972 56.3687C60.8535 56.2305 59.7384 55.8588 58.6236 56.0236C57.203 56.2335 56.0278 57.3043 55.3278 58.5571C54.6278 59.81 54.3275 61.24 54.0362 62.645L53.2442 66.4662C52.9985 67.6514 52.7518 68.868 52.9415 70.0634C53.3346 72.5415 55.528 74.5113 55.6791 77.0158C55.8232 76.3242 56.1368 75.6792 56.5918 75.1385C57.0469 74.5979 57.6291 74.1786 58.2863 73.9182C58.4511 73.8377 58.6382 73.815 58.8175 73.8538C59.0354 73.9234 59.1628 74.1409 59.3003 74.3236C59.6606 74.8022 60.7926 75.5284 61.4342 75.1889C62.0084 74.8851 61.5797 73.9314 62.3016 73.4422Z" fill="#2F2E41"/>
<path d="M40.564 112.699C40.564 112.699 39.0915 121.947 45.1918 121.106C45.1918 121.106 48.3471 120.686 48.7678 121.106C49.1886 121.526 64.7549 118.794 66.8584 116.482C66.8584 116.482 69.3827 115.641 70.6448 116.902C71.907 118.163 84.5283 119.424 80.7419 115.641C76.9555 111.858 71.0655 111.017 71.0655 111.017L63.072 111.438C63.072 111.438 58.8649 112.699 56.3407 111.438C53.8164 110.177 46.6643 110.597 46.6643 110.597L40.564 112.699Z" fill="#A0616A"/>
<path d="M49.1885 83.4838C49.1885 83.4838 39.7225 84.5347 39.7225 98.1963V115.641C39.7225 115.641 44.9814 113.329 46.0332 113.539C47.085 113.75 51.2921 110.807 51.2921 110.807C51.2921 110.807 56.1303 99.4574 55.7096 96.3047C55.2888 93.152 55.4992 83.9042 49.1885 83.4838Z" fill="#429586"/>
<path d="M64.3342 71.3985C68.8069 71.3985 72.4329 69.5165 72.4329 67.1949C72.4329 64.8733 68.8069 62.9913 64.3342 62.9913C59.8614 62.9913 56.2355 64.8733 56.2355 67.1949C56.2355 69.5165 59.8614 71.3985 64.3342 71.3985Z" fill="#2F2E41"/>
<path d="M56.7614 74.9716C58.3297 74.9716 59.6012 71.8192 59.6012 67.9306C59.6012 64.0419 58.3297 60.8896 56.7614 60.8896C55.193 60.8896 53.9216 64.0419 53.9216 67.9306C53.9216 71.8192 55.193 74.9716 56.7614 74.9716Z" fill="#2F2E41"/>
</g>
</svg>
